<svg xmlns="http://www.w3.org/2000/svg" viewBox="0 0 800 500" role="img" aria-label="A closed curve winding twice around a point">
  <defs>
    <linearGradient id="g" x1="0" y1="0" x2="1" y2="1">
      <stop offset="0%" stop-color="#123c52"/><stop offset="100%" stop-color="#0d2a3a"/>
    </linearGradient>
  </defs>
  <rect width="800" height="500" fill="url(#g)"/>
  <path d="M478.2 217.7 L478.2 218.6 L478.2 219.4 L478.2 220.3 L478.2 221.2 L478.2 222.1 L478.2 223.0 L478.2 223.8 L478.2 224.7 L478.1 225.6 L478.1 226.5 L478.0 227.4 L477.9 228.2 L477.9 229.1 L477.8 230.0 L477.7 230.9 L477.6 231.8 L477.5 232.6 L477.3 233.5 L477.2 234.4 L477.1 235.3 L476.9 236.1 L476.8 237.0 L476.6 237.9 L476.4 238.8 L476.2 239.6 L476.0 240.5 L475.8 241.4 L475.6 242.2 L475.4 243.1 L475.1 243.9 L474.9 244.8 L474.6 245.6 L474.4 246.5 L474.1 247.4 L473.8 248.2 L473.5 249.0 L473.2 249.9 L472.9 250.7 L472.6 251.6 L472.3 252.4 L472.0 253.2 L471.6 254.1 L471.3 254.9 L470.9 255.7 L470.5 256.5 L470.2 257.3 L469.8 258.1 L469.4 258.9 L469.0 259.7 L468.6 260.5 L468.2 261.3 L467.7 262.1 L467.3 262.9 L466.8 263.7 L466.4 264.5 L465.9 265.2 L465.5 266.0 L465.0 266.8 L464.5 267.5 L464.0 268.3 L463.5 269.0 L463.0 269.8 L462.5 270.5 L461.9 271.3 L461.4 272.0 L460.9 272.7 L460.3 273.4 L459.7 274.1 L459.2 274.8 L458.6 275.5 L458.0 276.2 L457.4 276.9 L456.8 277.6 L456.2 278.3 L455.6 279.0 L455.0 279.6 L454.4 280.3 L453.7 280.9 L453.1 281.6 L452.5 282.2 L451.8 282.9 L451.1 283.5 L450.5 284.1 L449.8 284.7 L449.1 285.3 L448.4 285.9 L447.7 286.5 L447.0 287.1 L446.3 287.7 L445.6 288.3 L444.9 288.8 L444.2 289.4 L443.4 289.9 L442.7 290.5 L442.0 291.0 L441.2 291.5 L440.4 292.0 L439.7 292.6 L438.9 293.1 L438.1 293.6 L437.4 294.0 L436.6 294.5 L435.8 295.0 L435.0 295.5 L434.2 295.9 L433.4 296.4 L432.6 296.8 L431.8 297.2 L431.0 297.7 L430.1 298.1 L429.3 298.5 L428.5 298.9 L427.6 299.3 L426.8 299.6 L425.9 300.0 L425.1 300.4 L424.2 300.7 L423.4 301.1 L422.5 301.4 L421.6 301.7 L420.8 302.0 L419.9 302.4 L419.0 302.7 L418.1 302.9 L417.3 303.2 L416.4 303.5 L415.5 303.8 L414.6 304.0 L413.7 304.3 L412.8 304.5 L411.9 304.7 L411.0 304.9 L410.1 305.1 L409.2 305.3 L408.3 305.5 L407.3 305.7 L406.4 305.9 L405.5 306.0 L404.6 306.2 L403.7 306.3 L402.7 306.5 L401.8 306.6 L400.9 306.7 L399.9 306.8 L399.0 306.9 L398.1 307.0 L397.1 307.0 L396.2 307.1 L395.3 307.1 L394.3 307.2 L393.4 307.2 L392.5 307.2 L391.5 307.3 L390.6 307.3 L389.6 307.3 L388.7 307.2 L387.8 307.2 L386.8 307.2 L385.9 307.1 L384.9 307.1 L384.0 307.0 L383.1 306.9 L382.1 306.9 L381.2 306.8 L380.2 306.7 L379.3 306.5 L378.4 306.4 L377.4 306.3 L376.5 306.1 L375.6 306.0 L374.6 305.8 L373.7 305.6 L372.8 305.5 L371.9 305.3 L370.9 305.1 L370.0 304.8 L369.1 304.6 L368.2 304.4 L367.2 304.1 L366.3 303.9 L365.4 303.6 L364.5 303.4 L363.6 303.1 L362.7 302.8 L361.8 302.5 L360.9 302.2 L360.0 301.9 L359.1 301.5 L358.2 301.2 L357.3 300.8 L356.4 300.5 L355.6 300.1 L354.7 299.7 L353.8 299.4 L352.9 299.0 L352.1 298.6 L351.2 298.1 L350.3 297.7 L349.5 297.3 L348.6 296.8 L347.8 296.4 L347.0 295.9 L346.1 295.5 L345.3 295.0 L344.5 294.5 L343.6 294.0 L342.8 293.5 L342.0 293.0 L341.2 292.5 L340.4 291.9 L339.6 291.4 L338.8 290.9 L338.0 290.3 L337.2 289.7 L336.5 289.2 L335.7 288.6 L334.9 288.0 L334.2 287.4 L333.4 286.8 L332.7 286.2 L331.9 285.6 L331.2 284.9 L330.5 284.3 L329.8 283.6 L329.0 283.0 L328.3 282.3 L327.6 281.7 L326.9 281.0 L326.2 280.3 L325.6 279.6 L324.9 278.9 L324.2 278.2 L323.6 277.5 L322.9 276.8 L322.3 276.0 L321.6 275.3 L321.0 274.6 L320.4 273.8 L319.8 273.1 L319.2 272.3 L318.6 271.5 L318.0 270.8 L317.4 270.0 L316.8 269.2 L316.3 268.4 L315.7 267.6 L315.1 266.8 L314.6 266.0 L314.1 265.2 L313.5 264.3 L313.0 263.5 L312.5 262.7 L312.0 261.8 L311.5 261.0 L311.0 260.1 L310.6 259.3 L310.1 258.4 L309.6 257.5 L309.2 256.7 L308.8 255.8 L308.3 254.9 L307.9 254.0 L307.5 253.1 L307.1 252.2 L306.7 251.3 L306.3 250.4 L306.0 249.5 L305.6 248.6 L305.2 247.7 L304.9 246.7 L304.6 245.8 L304.2 244.9 L303.9 244.0 L303.6 243.0 L303.3 242.1 L303.0 241.1 L302.7 240.2 L302.5 239.2 L302.2 238.3 L302.0 237.3 L301.7 236.4 L301.5 235.4 L301.3 234.4 L301.1 233.5 L300.9 232.5 L300.7 231.5 L300.5 230.5 L300.3 229.6 L300.2 228.6 L300.0 227.6 L299.9 226.6 L299.8 225.6 L299.7 224.6 L299.6 223.6 L299.5 222.7 L299.4 221.7 L299.3 220.7 L299.2 219.7 L299.2 218.7 L299.1 217.7 L299.1 216.7 L299.1 215.7 L299.1 214.7 L299.1 213.7 L299.1 212.7 L299.1 211.7 L299.1 210.7 L299.2 209.7 L299.2 208.7 L299.3 207.7 L299.4 206.7 L299.4 205.7 L299.5 204.7 L299.6 203.7 L299.8 202.7 L299.9 201.7 L300.0 200.7 L300.2 199.7 L300.3 198.7 L300.5 197.7 L300.7 196.7 L300.8 195.8 L301.0 194.8 L301.3 193.8 L301.5 192.8 L301.7 191.8 L301.9 190.8 L302.2 189.9 L302.5 188.9 L302.7 187.9 L303.0 186.9 L303.3 186.0 L303.6 185.0 L303.9 184.1 L304.2 183.1 L304.6 182.1 L304.9 181.2 L305.3 180.2 L305.6 179.3 L306.0 178.3 L306.4 177.4 L306.8 176.5 L307.2 175.5 L307.6 174.6 L308.0 173.7 L308.4 172.8 L308.9 171.9 L309.3 170.9 L309.8 170.0 L310.3 169.1 L310.7 168.2 L311.2 167.4 L311.7 166.5 L312.2 165.6 L312.8 164.7 L313.3 163.8 L313.8 163.0 L314.4 162.1 L314.9 161.2 L315.5 160.4 L316.1 159.5 L316.6 158.7 L317.2 157.9 L317.8 157.0 L318.4 156.2 L319.1 155.4 L319.7 154.6 L320.3 153.8 L321.0 153.0 L321.6 152.2 L322.3 151.4 L323.0 150.7 L323.6 149.9 L324.3 149.1 L325.0 148.4 L325.7 147.6 L326.4 146.9 L327.2 146.1 L327.9 145.4 L328.6 144.7 L329.4 144.0 L330.1 143.3 L330.9 142.6 L331.6 141.9 L332.4 141.2 L333.2 140.5 L334.0 139.9 L334.8 139.2 L335.6 138.6 L336.4 137.9 L337.2 137.3 L338.0 136.7 L338.9 136.0 L339.7 135.4 L340.5 134.8 L341.4 134.2 L342.2 133.7 L343.1 133.1 L344.0 132.5 L344.8 132.0 L345.7 131.4 L346.6 130.9 L347.5 130.3 L348.4 129.8 L349.3 129.3 L350.2 128.8 L351.1 128.3 L352.1 127.8 L353.0 127.4 L353.9 126.9 L354.9 126.5 L355.8 126.0 L356.8 125.6 L357.7 125.2 L358.7 124.7 L359.6 124.3 L360.6 123.9 L361.6 123.6 L362.5 123.2 L363.5 122.8 L364.5 122.5 L365.5 122.1 L366.5 121.8 L367.5 121.5 L368.5 121.2 L369.5 120.9 L370.5 120.6 L371.5 120.3 L372.5 120.0 L373.5 119.7 L374.5 119.5 L375.6 119.3 L376.6 119.0 L377.6 118.8 L378.6 118.6 L379.7 118.4 L380.7 118.2 L381.8 118.1 L382.8 117.9 L383.8 117.7 L384.9 117.6 L385.9 117.5 L387.0 117.3 L388.0 117.2 L389.1 117.1 L390.1 117.0 L391.2 117.0 L392.2 116.9 L393.3 116.8 L394.3 116.8 L395.4 116.8 L396.5 116.7 L397.5 116.7 L398.6 116.7 L399.6 116.8 L400.7 116.8 L401.7 116.8 L402.8 116.9 L403.9 116.9 L404.9 117.0 L406.0 117.1 L407.0 117.1 L408.1 117.2 L409.2 117.4 L410.2 117.5 L411.3 117.6 L412.3 117.8 L413.4 117.9 L414.4 118.1 L415.5 118.3 L416.5 118.5 L417.6 118.7 L418.6 118.9 L419.7 119.1 L420.7 119.3 L421.7 119.6 L422.8 119.8 L423.8 120.1 L424.8 120.4 L425.9 120.7 L426.9 121.0 L427.9 121.3 L428.9 121.6 L430.0 121.9 L431.0 122.3 L432.0 122.6 L433.0 123.0 L434.0 123.4 L435.0 123.7 L436.0 124.1 L437.0 124.5 L438.0 125.0 L439.0 125.4 L439.9 125.8 L440.9 126.3 L441.9 126.7 L442.9 127.2 L443.8 127.7 L444.8 128.2 L445.7 128.7 L446.7 129.2 L447.6 129.7 L448.6 130.2 L449.5 130.8 L450.4 131.3 L451.3 131.9 L452.3 132.5 L453.2 133.0 L454.1 133.6 L455.0 134.2 L455.9 134.8 L456.8 135.5 L457.6 136.1 L458.5 136.7 L459.4 137.4 L460.2 138.0 L461.1 138.7 L461.9 139.4 L462.8 140.1 L463.6 140.7 L464.4 141.4 L465.3 142.2 L466.1 142.9 L466.9 143.6 L467.7 144.3 L468.5 145.1 L469.3 145.8 L470.0 146.6 L470.8 147.4 L471.6 148.2 L472.3 148.9 L473.1 149.7 L473.8 150.5 L474.5 151.4 L475.2 152.2 L476.0 153.0 L476.7 153.8 L477.4 154.7 L478.0 155.5 L478.7 156.4 L479.4 157.2 L480.0 158.1 L480.7 159.0 L481.3 159.9 L482.0 160.8 L482.6 161.7 L483.2 162.6 L483.8 163.5 L484.4 164.4 L485.0 165.3 L485.6 166.3 L486.1 167.2 L486.7 168.2 L487.2 169.1 L487.8 170.1 L488.3 171.0 L488.8 172.0 L489.3 173.0 L489.8 174.0 L490.3 175.0 L490.8 175.9 L491.3 176.9 L491.7 177.9 L492.2 179.0 L492.6 180.0 L493.0 181.0 L493.4 182.0 L493.8 183.0 L494.2 184.1 L494.6 185.1 L495.0 186.1 L495.3 187.2 L495.7 188.2 L496.0 189.3 L496.4 190.3 L496.7 191.4 L497.0 192.5 L497.3 193.5 L497.6 194.6 L497.8 195.7 L498.1 196.8 L498.4 197.8 L498.6 198.9 L498.8 200.0 L499.0 201.1 L499.2 202.2 L499.4 203.3 L499.6 204.4 L499.8 205.5 L499.9 206.6 L500.1 207.7 L500.2 208.8 L500.4 209.9 L500.5 211.0 L500.6 212.1 L500.7 213.2 L500.7 214.3 L500.8 215.5 L500.9 216.6 L500.9 217.7 L500.9 218.8 L501.0 219.9 L501.0 221.0 L501.0 222.2 L501.0 223.3 L500.9 224.4 L500.9 225.5 L500.8 226.6 L500.8 227.7 L500.7 228.9 L500.6 230.0 L500.5 231.1 L500.4 232.2 L500.3 233.3 L500.2 234.4 L500.0 235.6 L499.9 236.7 L499.7 237.8 L499.5 238.9 L499.3 240.0 L499.1 241.1 L498.9 242.2 L498.7 243.3 L498.4 244.4 L498.2 245.5 L497.9 246.6 L497.7 247.7 L497.4 248.8 L497.1 249.9 L496.8 251.0 L496.5 252.1 L496.1 253.1 L495.8 254.2 L495.4 255.3 L495.1 256.4 L494.7 257.4 L494.3 258.5 L493.9 259.5 L493.5 260.6 L493.1 261.6 L492.7 262.7 L492.2 263.7 L491.8 264.8 L491.3 265.8 L490.8 266.8 L490.3 267.9 L489.8 268.9 L489.3 269.9 L488.8 270.9 L488.3 271.9 L487.7 272.9 L487.2 273.9 L486.6 274.9 L486.0 275.9 L485.5 276.9 L484.9 277.8 L484.3 278.8 L483.7 279.8 L483.0 280.7 L482.4 281.7 L481.8 282.6 L481.1 283.5 L480.4 284.5 L479.8 285.4 L479.1 286.3 L478.4 287.2 L477.7 288.1 L477.0 289.0 L476.2 289.9 L475.5 290.8 L474.8 291.6 L474.0 292.5 L473.3 293.4 L472.5 294.2 L471.7 295.1 L470.9 295.9 L470.1 296.7 L469.3 297.5 L468.5 298.3 L467.7 299.1 L466.8 299.9 L466.0 300.7 L465.2 301.5 L464.3 302.3 L463.4 303.0 L462.6 303.8 L461.7 304.5 L460.8 305.2 L459.9 305.9 L459.0 306.7 L458.1 307.4 L457.2 308.1 L456.2 308.7 L455.3 309.4 L454.3 310.1 L453.4 310.7 L452.4 311.4 L451.5 312.0 L450.5 312.6 L449.5 313.3 L448.5 313.9 L447.5 314.5 L446.5 315.0 L445.5 315.6 L444.5 316.2 L443.5 316.7 L442.5 317.3 L441.5 317.8 L440.4 318.3 L439.4 318.9 L438.3 319.4 L437.3 319.8 L436.2 320.3 L435.2 320.8 L434.1 321.2 L433.0 321.7 L431.9 322.1 L430.9 322.6 L429.8 323.0 L428.7 323.4 L427.6 323.8 L426.5 324.1 L425.4 324.5 L424.3 324.9 L423.1 325.2 L422.0 325.5 L420.9 325.9 L419.8 326.2 L418.7 326.5 L417.5 326.7 L416.4 327.0 L415.2 327.3 L414.1 327.5 L413.0 327.8 L411.8 328.0 L410.7 328.2 L409.5 328.4 L408.4 328.6 L407.2 328.8 L406.0 328.9 L404.9 329.1 L403.7 329.2 L402.5 329.4 L401.4 329.5 L400.2 329.6 L399.0 329.7 L397.9 329.8 L396.7 329.8 L395.5 329.9 L394.3 329.9 L393.2 330.0 L392.0 330.0 L390.8 330.0 L389.6 330.0 L388.5 330.0 L387.3 329.9 L386.1 329.9 L384.9 329.9 L383.7 329.8 L382.6 329.7 L381.4 329.6 L380.2 329.5 L379.0 329.4 L377.9 329.3 L376.7 329.1 L375.5 329.0 L374.3 328.8 L373.2 328.6 L372.0 328.4 L370.8 328.2 L369.7 328.0 L368.5 327.8 L367.4 327.5 L366.2 327.3 L365.0 327.0 L363.9 326.8 L362.7 326.5 L361.6 326.2 L360.4 325.9 L359.3 325.5 L358.2 325.2 L357.0 324.8 L355.9 324.5 L354.8 324.1 L353.6 323.7 L352.5 323.3 L351.4 322.9 L350.3 322.5 L349.2 322.1 L348.1 321.6 L347.0 321.2 L345.9 320.7 L344.8 320.2 L343.7 319.7 L342.6 319.2 L341.5 318.7 L340.5 318.2 L339.4 317.7 L338.3 317.1 L337.3 316.5 L336.2 316.0 L335.2 315.4 L334.1 314.8 L333.1 314.2 L332.1 313.6 L331.0 313.0 L330.0 312.3 L329.0 311.7 L328.0 311.0 L327.0 310.3 L326.0 309.7 L325.0 309.0 L324.1 308.3 L323.1 307.6 L322.1 306.8 L321.2 306.1 L320.2 305.4 L319.3 304.6 L318.4 303.9 L317.4 303.1 L316.5 302.3 L315.6 301.5 L314.7 300.7 L313.8 299.9 L313.0 299.1 L312.1 298.2 L311.2 297.4 L310.4 296.6 L309.5 295.7 L308.7 294.8 L307.8 294.0 L307.0 293.1 L306.2 292.2 L305.4 291.3 L304.6 290.4 L303.8 289.4 L303.0 288.5 L302.3 287.6 L301.5 286.6 L300.8 285.7 L300.0 284.7 L299.3 283.7 L298.6 282.8 L297.9 281.8 L297.2 280.8 L296.5 279.8 L295.8 278.8 L295.1 277.8 L294.5 276.7 L293.8 275.7 L293.2 274.7 L292.6 273.6 L292.0 272.6 L291.4 271.5 L290.8 270.5 L290.2 269.4 L289.6 268.3 L289.1 267.2 L288.5 266.1 L288.0 265.0 L287.5 263.9 L286.9 262.8 L286.4 261.7 L285.9 260.6 L285.5 259.5 L285.0 258.3 L284.5 257.2 L284.1 256.1 L283.7 254.9 L283.3 253.8 L282.8 252.6 L282.4 251.5 L282.1 250.3 L281.7 249.1 L281.3 248.0 L281.0 246.8 L280.6 245.6 L280.3 244.4 L280.0 243.2 L279.7 242.0 L279.4 240.9 L279.2 239.7 L278.9 238.5 L278.6 237.3 L278.4 236.0 L278.2 234.8 L278.0 233.6 L277.8 232.4 L277.6 231.2 L277.4 230.0 L277.3 228.8 L277.1 227.5 L277.0 226.3 L276.9 225.1 L276.7 223.8 L276.7 222.6 L276.6 221.4 L276.5 220.2 L276.4 218.9 L276.4 217.7 L276.4 216.4 L276.3 215.2 L276.3 214.0 L276.3 212.7 L276.4 211.5 L276.4 210.3 L276.4 209.0 L276.5 207.8 L276.6 206.6 L276.7 205.3 L276.8 204.1 L276.9 202.8 L277.0 201.6 L277.1 200.4 L277.3 199.1 L277.4 197.9 L277.6 196.7 L277.8 195.5 L278.0 194.2 L278.2 193.0 L278.5 191.8 L278.7 190.6 L279.0 189.3 L279.2 188.1 L279.5 186.9 L279.8 185.7 L280.1 184.5 L280.4 183.3 L280.7 182.1 L281.1 180.9 L281.4 179.7 L281.8 178.5 L282.2 177.3 L282.6 176.1 L283.0 174.9 L283.4 173.8 L283.8 172.6 L284.3 171.4 L284.7 170.3 L285.2 169.1 L285.7 167.9 L286.2 166.8 L286.7 165.6 L287.2 164.5 L287.7 163.4 L288.3 162.2 L288.8 161.1 L289.4 160.0 L290.0 158.9 L290.6 157.8 L291.2 156.7 L291.8 155.6 L292.4 154.5 L293.0 153.4 L293.7 152.3 L294.3 151.2 L295.0 150.2 L295.7 149.1 L296.4 148.1 L297.1 147.0 L297.8 146.0 L298.5 145.0 L299.3 143.9 L300.0 142.9 L300.8 141.9 L301.5 140.9 L302.3 139.9 L303.1 138.9 L303.9 138.0 L304.7 137.0 L305.5 136.0 L306.4 135.1 L307.2 134.1 L308.1 133.2 L308.9 132.3 L309.8 131.4 L310.7 130.4 L311.6 129.6 L312.5 128.7 L313.4 127.8 L314.3 126.9 L315.2 126.0 L316.2 125.2 L317.1 124.4 L318.1 123.5 L319.1 122.7 L320.0 121.9 L321.0 121.1 L322.0 120.3 L323.0 119.5 L324.0 118.7 L325.0 118.0 L326.1 117.2 L327.1 116.5 L328.1 115.7 L329.2 115.0 L330.3 114.3 L331.3 113.6 L332.4 112.9 L333.5 112.3 L334.6 111.6 L335.7 110.9 L336.8 110.3 L337.9 109.7 L339.0 109.0 L340.1 108.4 L341.2 107.8 L342.4 107.3 L343.5 106.7 L344.7 106.1 L345.8 105.6 L347.0 105.0 L348.2 104.5 L349.3 104.0 L350.5 103.5 L351.7 103.0 L352.9 102.5 L354.1 102.1 L355.3 101.6 L356.5 101.2 L357.7 100.8 L358.9 100.3 L360.1 99.9 L361.4 99.6 L362.6 99.2 L363.8 98.8 L365.1 98.5 L366.3 98.1 L367.5 97.8 L368.8 97.5 L370.0 97.2 L371.3 96.9 L372.6 96.6 L373.8 96.4 L375.1 96.1 L376.4 95.9 L377.6 95.7 L378.9 95.5 L380.2 95.3 L381.5 95.1 L382.7 94.9 L384.0 94.8 L385.3 94.6 L386.6 94.5 L387.9 94.4 L389.2 94.3 L390.5 94.2 L391.8 94.2 L393.0 94.1 L394.3 94.1 L395.6 94.0 L396.9 94.0 L398.2 94.0 L399.5 94.0 L400.8 94.0 L402.1 94.1 L403.4 94.1 L404.7 94.2 L406.0 94.3 L407.3 94.4 L408.6 94.5 L409.9 94.6 L411.2 94.7 L412.5 94.9 L413.8 95.0 L415.1 95.2 L416.3 95.4 L417.6 95.6 L418.9 95.8 L420.2 96.0 L421.5 96.3 L422.8 96.5 L424.0 96.8 L425.3 97.1 L426.6 97.3 L427.9 97.7 L429.1 98.0 L430.4 98.3 L431.6 98.7 L432.9 99.0 L434.1 99.4 L435.4 99.8 L436.6 100.2 L437.9 100.6 L439.1 101.0 L440.4 101.5 L441.6 101.9 L442.8 102.4 L444.0 102.9 L445.2 103.4 L446.5 103.9 L447.7 104.4 L448.9 104.9 L450.1 105.5 L451.2 106.0 L452.4 106.6 L453.6 107.2 L454.8 107.8 L455.9 108.4 L457.1 109.0 L458.3 109.6 L459.4 110.2 L460.5 110.9 L461.7 111.6 L462.8 112.2 L463.9 112.9 L465.0 113.6 L466.2 114.4 L467.3 115.1 L468.3 115.8 L469.4 116.6 L470.5 117.3 L471.6 118.1 L472.6 118.9 L473.7 119.7 L474.7 120.5 L475.8 121.3 L476.8 122.1 L477.8 123.0 L478.8 123.8 L479.8 124.7 L480.8 125.6 L481.8 126.5 L482.8 127.3 L483.8 128.3 L484.7 129.2 L485.7 130.1 L486.6 131.0 L487.6 132.0 L488.5 132.9 L489.4 133.9 L490.3 134.9 L491.2 135.9 L492.1 136.8 L492.9 137.9 L493.8 138.9 L494.6 139.9 L495.5 140.9 L496.3 142.0 L497.1 143.0 L497.9 144.1 L498.7 145.1 L499.5 146.2 L500.3 147.3 L501.0 148.4 L501.8 149.5 L502.5 150.6 L503.3 151.7 L504.0 152.8 L504.7 154.0 L505.4 155.1 L506.1 156.3 L506.7 157.4 L507.4 158.6 L508.0 159.7 L508.7 160.9 L509.3 162.1 L509.9 163.3 L510.5 164.5 L511.1 165.7 L511.7 166.9 L512.2 168.1 L512.8 169.4 L513.3 170.6 L513.8 171.8 L514.3 173.1 L514.8 174.3 L515.3 175.6 L515.8 176.8 L516.2 178.1 L516.7 179.3 L517.1 180.6 L517.5 181.9 L517.9 183.2 L518.3 184.5 L518.7 185.8 L519.1 187.0 L519.4 188.3 L519.8 189.6 L520.1 191.0 L520.4 192.3 L520.7 193.6 L521.0 194.9 L521.3 196.2 L521.5 197.5 L521.7 198.9 L522.0 200.2 L522.2 201.5 L522.4 202.9 L522.6 204.2 L522.7 205.5 L522.9 206.9 L523.0 208.2 L523.2 209.6 L523.3 210.9 L523.4 212.3 L523.5 213.6 L523.6 215.0 L523.6 216.3 L523.7 217.7 L478.2 217.7" fill="none" stroke="#ffffff" stroke-width="2.6" stroke-opacity="0.92" stroke-linecap="round" stroke-linejoin="round"/><circle cx="394.3" cy="217.7" r="6" fill="#f2b880"/><circle cx="394.3" cy="217.7" r="15" fill="none" stroke="#f2b880" stroke-opacity="0.45" stroke-width="1.5"/>
  <text x="400" y="372" text-anchor="middle" font-family="Inter, Helvetica, Arial, sans-serif"
        font-size="20" font-weight="500" fill="#ffffff" fill-opacity="0.70"
        letter-spacing="2.5">WINDING NUMBER</text>
  <text x="400" y="406" text-anchor="middle" font-family="Inter, Helvetica, Arial, sans-serif" font-size="21" fill="#ffffff" fill-opacity="0.62">n = 2</text>
</svg>
