<svg xmlns="http://www.w3.org/2000/svg" viewBox="0 0 800 500" role="img"
     aria-label="Monte Carlo estimate of pi: 857 of 1100 random points fall inside the quarter circle">
  <defs>
    <linearGradient id="mc" x1="0" y1="0" x2="1" y2="1">
      <stop offset="0%" stop-color="#123c52"/><stop offset="100%" stop-color="#0d2a3a"/>
    </linearGradient>
  </defs>
  <rect width="800" height="500" fill="url(#mc)"/>
  <rect x="70" y="100.0" width="300" height="300" fill="none"
        stroke="#ffffff" stroke-opacity="0.25"/>
  <path d="M70 100.0 A 300 300 0 0 1 370 400.0"
        fill="none" stroke="#ffffff" stroke-opacity="0.5" stroke-width="2"/>
  <g fill="#f2b880" fill-opacity="0.95"><circle cx="193.2" cy="160.1" r="2.4"/><circle cx="253.3" cy="325.7" r="2.4"/><circle cx="147.2" cy="151.2" r="2.4"/><circle cx="107.5" cy="329.9" r="2.4"/><circle cx="119.6" cy="128.9" r="2.4"/><circle cx="240.4" cy="395.7" r="2.4"/><circle cx="181.6" cy="187.7" r="2.4"/><circle cx="106.1" cy="382.1" r="2.4"/><circle cx="71.9" cy="368.0" r="2.4"/><circle cx="182.7" cy="391.0" r="2.4"/><circle cx="147.6" cy="221.1" r="2.4"/><circle cx="237.3" cy="335.7" r="2.4"/><circle cx="136.0" cy="386.2" r="2.4"/><circle cx="217.3" cy="370.7" r="2.4"/><circle cx="201.8" cy="170.3" r="2.4"/><circle cx="135.4" cy="398.7" r="2.4"/><circle cx="151.1" cy="295.6" r="2.4"/><circle cx="224.7" cy="289.0" r="2.4"/><circle cx="177.8" cy="200.4" r="2.4"/><circle cx="89.4" cy="156.4" r="2.4"/><circle cx="219.5" cy="205.3" r="2.4"/><circle cx="124.8" cy="352.8" r="2.4"/><circle cx="117.2" cy="143.1" r="2.4"/><circle cx="172.1" cy="390.0" r="2.4"/><circle cx="77.2" cy="368.8" r="2.4"/><circle cx="131.9" cy="191.5" r="2.4"/><circle cx="164.7" cy="243.7" r="2.4"/><circle cx="166.3" cy="123.1" r="2.4"/><circle cx="93.7" cy="314.1" r="2.4"/><circle cx="247.8" cy="318.6" r="2.4"/><circle cx="176.2" cy="145.8" r="2.4"/><circle cx="150.8" cy="272.1" r="2.4"/><circle cx="74.2" cy="290.0" r="2.4"/><circle cx="243.1" cy="362.3" r="2.4"/><circle cx="177.7" cy="219.4" r="2.4"/><circle cx="145.7" cy="272.4" r="2.4"/><circle cx="219.5" cy="398.5" r="2.4"/><circle cx="126.9" cy="125.2" r="2.4"/><circle cx="336.3" cy="284.9" r="2.4"/><circle cx="120.1" cy="369.2" r="2.4"/><circle cx="158.9" cy="188.2" r="2.4"/><circle cx="81.4" cy="119.7" r="2.4"/><circle cx="279.4" cy="381.7" r="2.4"/><circle cx="166.4" cy="284.9" r="2.4"/><circle cx="139.8" cy="234.6" r="2.4"/><circle cx="157.0" cy="329.2" r="2.4"/><circle cx="215.2" cy="216.2" r="2.4"/><circle cx="198.3" cy="178.9" r="2.4"/><circle cx="114.8" cy="346.6" r="2.4"/><circle cx="306.4" cy="250.8" r="2.4"/><circle cx="121.8" cy="357.4" r="2.4"/><circle cx="197.8" cy="350.3" r="2.4"/><circle cx="212.2" cy="376.5" r="2.4"/><circle cx="222.3" cy="174.0" r="2.4"/><circle cx="173.0" cy="149.6" r="2.4"/><circle cx="240.5" cy="383.5" r="2.4"/><circle cx="295.4" cy="256.8" r="2.4"/><circle cx="203.1" cy="261.1" r="2.4"/><circle cx="214.8" cy="233.2" r="2.4"/><circle cx="172.4" cy="290.1" r="2.4"/><circle cx="205.5" cy="170.6" r="2.4"/><circle cx="172.0" cy="200.2" r="2.4"/><circle cx="221.3" cy="197.4" r="2.4"/><circle cx="136.6" cy="208.0" r="2.4"/><circle cx="150.3" cy="157.4" r="2.4"/><circle cx="127.7" cy="148.0" r="2.4"/><circle cx="190.6" cy="333.6" r="2.4"/><circle cx="354.6" cy="312.9" r="2.4"/><circle cx="79.5" cy="286.2" r="2.4"/><circle cx="102.7" cy="267.1" r="2.4"/><circle cx="223.1" cy="223.9" r="2.4"/><circle cx="97.9" cy="106.0" r="2.4"/><circle cx="91.8" cy="107.5" r="2.4"/><circle cx="154.7" cy="305.2" r="2.4"/><circle cx="93.9" cy="255.0" r="2.4"/><circle cx="349.3" cy="313.3" r="2.4"/><circle cx="217.3" cy="377.9" r="2.4"/><circle cx="129.0" cy="333.5" r="2.4"/><circle cx="166.3" cy="301.6" r="2.4"/><circle cx="234.0" cy="360.2" r="2.4"/><circle cx="149.0" cy="337.4" r="2.4"/><circle cx="80.7" cy="303.2" r="2.4"/><circle cx="88.0" cy="102.5" r="2.4"/><circle cx="306.4" cy="320.1" r="2.4"/><circle cx="270.8" cy="333.0" r="2.4"/><circle cx="309.1" cy="329.5" r="2.4"/><circle cx="168.6" cy="389.5" r="2.4"/><circle cx="117.6" cy="394.1" r="2.4"/><circle cx="314.9" cy="248.7" r="2.4"/><circle cx="168.4" cy="395.3" r="2.4"/><circle cx="97.9" cy="164.7" r="2.4"/><circle cx="206.9" cy="245.0" r="2.4"/><circle cx="200.8" cy="378.1" r="2.4"/><circle cx="252.8" cy="226.1" r="2.4"/><circle cx="212.1" cy="172.9" r="2.4"/><circle cx="197.3" cy="137.5" r="2.4"/><circle cx="276.0" cy="336.9" r="2.4"/><circle cx="216.0" cy="182.5" r="2.4"/><circle cx="353.2" cy="385.0" r="2.4"/><circle cx="296.1" cy="271.0" r="2.4"/><circle cx="286.0" cy="321.0" r="2.4"/><circle cx="109.8" cy="286.7" r="2.4"/><circle cx="160.5" cy="320.1" r="2.4"/><circle cx="286.4" cy="340.5" r="2.4"/><circle cx="95.6" cy="129.7" r="2.4"/><circle cx="142.4" cy="377.8" r="2.4"/><circle cx="203.0" cy="202.7" r="2.4"/><circle cx="80.4" cy="173.7" r="2.4"/><circle cx="191.5" cy="225.5" r="2.4"/><circle cx="310.8" cy="231.6" r="2.4"/><circle cx="274.0" cy="280.0" r="2.4"/><circle cx="122.5" cy="261.9" r="2.4"/><circle cx="353.1" cy="379.7" r="2.4"/><circle cx="131.0" cy="254.2" r="2.4"/><circle cx="149.6" cy="336.1" r="2.4"/><circle cx="85.1" cy="238.5" r="2.4"/><circle cx="243.0" cy="297.8" r="2.4"/><circle cx="137.2" cy="191.8" r="2.4"/><circle cx="215.5" cy="395.9" r="2.4"/><circle cx="242.7" cy="294.9" r="2.4"/><circle cx="152.1" cy="253.0" r="2.4"/><circle cx="290.3" cy="392.3" r="2.4"/><circle cx="295.8" cy="298.3" r="2.4"/><circle cx="176.4" cy="351.8" r="2.4"/><circle cx="179.0" cy="330.3" r="2.4"/><circle cx="211.0" cy="314.4" r="2.4"/><circle cx="118.2" cy="356.8" r="2.4"/><circle cx="272.4" cy="214.1" r="2.4"/><circle cx="109.0" cy="350.8" r="2.4"/><circle cx="93.6" cy="183.1" r="2.4"/><circle cx="146.6" cy="334.5" r="2.4"/><circle cx="224.6" cy="332.5" r="2.4"/><circle cx="215.5" cy="181.6" r="2.4"/><circle cx="124.0" cy="281.1" r="2.4"/><circle cx="344.4" cy="385.7" r="2.4"/><circle cx="203.5" cy="399.1" r="2.4"/><circle cx="241.5" cy="366.5" r="2.4"/><circle cx="122.5" cy="351.9" r="2.4"/><circle cx="98.9" cy="162.0" r="2.4"/><circle cx="75.4" cy="203.3" r="2.4"/><circle cx="202.6" cy="347.2" r="2.4"/><circle cx="184.2" cy="248.2" r="2.4"/><circle cx="327.9" cy="315.7" r="2.4"/><circle cx="95.8" cy="212.7" r="2.4"/><circle cx="83.1" cy="246.2" r="2.4"/><circle cx="150.6" cy="385.6" r="2.4"/><circle cx="216.9" cy="321.2" r="2.4"/><circle cx="315.9" cy="250.7" r="2.4"/><circle cx="132.3" cy="359.8" r="2.4"/><circle cx="150.0" cy="346.4" r="2.4"/><circle cx="258.0" cy="307.3" r="2.4"/><circle cx="122.6" cy="321.6" r="2.4"/><circle cx="121.5" cy="185.6" r="2.4"/><circle cx="335.5" cy="306.5" r="2.4"/><circle cx="185.8" cy="225.6" r="2.4"/><circle cx="72.3" cy="272.9" r="2.4"/><circle cx="280.0" cy="358.2" r="2.4"/><circle cx="310.6" cy="284.5" r="2.4"/><circle cx="173.6" cy="255.3" r="2.4"/><circle cx="117.9" cy="170.4" r="2.4"/><circle cx="208.7" cy="288.8" r="2.4"/><circle cx="96.6" cy="395.0" r="2.4"/><circle cx="296.8" cy="233.4" r="2.4"/><circle cx="70.5" cy="158.3" r="2.4"/><circle cx="124.1" cy="208.7" r="2.4"/><circle cx="206.4" cy="215.4" r="2.4"/><circle cx="164.8" cy="204.1" r="2.4"/><circle cx="142.4" cy="290.1" r="2.4"/><circle cx="228.2" cy="256.1" r="2.4"/><circle cx="108.8" cy="224.6" r="2.4"/><circle cx="232.3" cy="260.0" r="2.4"/><circle cx="141.2" cy="131.1" r="2.4"/><circle cx="245.0" cy="298.5" r="2.4"/><circle cx="294.8" cy="280.1" r="2.4"/><circle cx="173.7" cy="231.0" r="2.4"/><circle cx="311.2" cy="381.8" r="2.4"/><circle cx="154.2" cy="392.8" r="2.4"/><circle cx="366.5" cy="392.2" r="2.4"/><circle cx="94.6" cy="199.7" r="2.4"/><circle cx="313.5" cy="311.2" r="2.4"/><circle cx="191.3" cy="231.6" r="2.4"/><circle cx="143.6" cy="370.6" r="2.4"/><circle cx="306.0" cy="224.6" r="2.4"/><circle cx="203.3" cy="314.3" r="2.4"/><circle cx="299.1" cy="324.1" r="2.4"/><circle cx="150.7" cy="357.7" r="2.4"/><circle cx="257.9" cy="320.0" r="2.4"/><circle cx="111.9" cy="307.2" r="2.4"/><circle cx="229.4" cy="256.1" r="2.4"/><circle cx="87.3" cy="329.6" r="2.4"/><circle cx="107.6" cy="116.4" r="2.4"/><circle cx="348.0" cy="347.0" r="2.4"/><circle cx="116.8" cy="357.2" r="2.4"/><circle cx="272.8" cy="301.2" r="2.4"/><circle cx="285.6" cy="296.5" r="2.4"/><circle cx="125.5" cy="389.5" r="2.4"/><circle cx="274.1" cy="208.4" r="2.4"/><circle cx="180.6" cy="230.8" r="2.4"/><circle cx="120.2" cy="116.5" r="2.4"/><circle cx="142.0" cy="308.8" r="2.4"/><circle cx="79.9" cy="138.5" r="2.4"/><circle cx="348.7" cy="368.0" r="2.4"/><circle cx="252.7" cy="352.7" r="2.4"/><circle cx="161.9" cy="329.9" r="2.4"/><circle cx="292.1" cy="374.5" r="2.4"/><circle cx="224.2" cy="232.3" r="2.4"/><circle cx="145.6" cy="272.7" r="2.4"/><circle cx="71.5" cy="326.8" r="2.4"/><circle cx="74.8" cy="168.5" r="2.4"/><circle cx="136.2" cy="300.8" r="2.4"/><circle cx="339.5" cy="388.1" r="2.4"/><circle cx="265.1" cy="296.5" r="2.4"/><circle cx="74.4" cy="272.8" r="2.4"/><circle cx="180.9" cy="352.9" r="2.4"/><circle cx="167.6" cy="314.7" r="2.4"/><circle cx="99.6" cy="285.2" r="2.4"/><circle cx="314.9" cy="311.0" r="2.4"/><circle cx="170.3" cy="336.1" r="2.4"/><circle cx="156.9" cy="353.1" r="2.4"/><circle cx="247.0" cy="166.1" r="2.4"/><circle cx="363.4" cy="348.5" r="2.4"/><circle cx="258.7" cy="294.4" r="2.4"/><circle cx="177.6" cy="304.6" r="2.4"/><circle cx="139.6" cy="252.8" r="2.4"/><circle cx="247.3" cy="161.2" r="2.4"/><circle cx="203.7" cy="297.3" r="2.4"/><circle cx="91.7" cy="123.7" r="2.4"/><circle cx="108.2" cy="327.2" r="2.4"/><circle cx="167.5" cy="118.6" r="2.4"/><circle cx="292.7" cy="226.4" r="2.4"/><circle cx="176.5" cy="323.5" r="2.4"/><circle cx="212.6" cy="288.1" r="2.4"/><circle cx="243.0" cy="287.6" r="2.4"/><circle cx="134.7" cy="398.7" r="2.4"/><circle cx="162.8" cy="182.8" r="2.4"/><circle cx="302.6" cy="306.8" r="2.4"/><circle cx="287.0" cy="296.7" r="2.4"/><circle cx="155.2" cy="280.6" r="2.4"/><circle cx="168.8" cy="282.6" r="2.4"/><circle cx="75.5" cy="312.9" r="2.4"/><circle cx="256.4" cy="343.4" r="2.4"/><circle cx="155.1" cy="124.5" r="2.4"/><circle cx="125.3" cy="125.0" r="2.4"/><circle cx="279.8" cy="380.3" r="2.4"/><circle cx="286.7" cy="281.7" r="2.4"/><circle cx="114.6" cy="216.3" r="2.4"/><circle cx="203.7" cy="357.8" r="2.4"/><circle cx="191.7" cy="289.6" r="2.4"/><circle cx="82.9" cy="114.9" r="2.4"/><circle cx="167.1" cy="360.6" r="2.4"/><circle cx="325.7" cy="362.7" r="2.4"/><circle cx="140.0" cy="307.3" r="2.4"/><circle cx="215.4" cy="162.1" r="2.4"/><circle cx="204.3" cy="236.8" r="2.4"/><circle cx="201.8" cy="229.7" r="2.4"/><circle cx="206.4" cy="215.5" r="2.4"/><circle cx="357.6" cy="381.1" r="2.4"/><circle cx="218.8" cy="354.4" r="2.4"/><circle cx="319.0" cy="298.8" r="2.4"/><circle cx="83.8" cy="382.8" r="2.4"/><circle cx="295.8" cy="336.3" r="2.4"/><circle cx="170.0" cy="387.9" r="2.4"/><circle cx="139.7" cy="353.4" r="2.4"/><circle cx="209.2" cy="313.6" r="2.4"/><circle cx="252.1" cy="352.3" r="2.4"/><circle cx="123.5" cy="378.0" r="2.4"/><circle cx="183.2" cy="315.6" r="2.4"/><circle cx="227.5" cy="266.6" r="2.4"/><circle cx="111.0" cy="147.5" r="2.4"/><circle cx="102.9" cy="316.7" r="2.4"/><circle cx="262.1" cy="222.4" r="2.4"/><circle cx="121.2" cy="115.5" r="2.4"/><circle cx="223.2" cy="309.0" r="2.4"/><circle cx="316.7" cy="345.2" r="2.4"/><circle cx="294.2" cy="252.1" r="2.4"/><circle cx="146.1" cy="362.6" r="2.4"/><circle cx="141.6" cy="137.3" r="2.4"/><circle cx="202.2" cy="160.6" r="2.4"/><circle cx="276.4" cy="304.7" r="2.4"/><circle cx="161.1" cy="124.7" r="2.4"/><circle cx="150.6" cy="355.5" r="2.4"/><circle cx="271.3" cy="387.8" r="2.4"/><circle cx="255.3" cy="354.1" r="2.4"/><circle cx="154.7" cy="327.3" r="2.4"/><circle cx="306.9" cy="239.8" r="2.4"/><circle cx="262.5" cy="186.0" r="2.4"/><circle cx="124.6" cy="133.9" r="2.4"/><circle cx="153.1" cy="250.1" r="2.4"/><circle cx="94.9" cy="140.9" r="2.4"/><circle cx="201.8" cy="374.8" r="2.4"/><circle cx="138.2" cy="357.2" r="2.4"/><circle cx="353.6" cy="371.5" r="2.4"/><circle cx="309.3" cy="379.2" r="2.4"/><circle cx="193.9" cy="137.5" r="2.4"/><circle cx="319.7" cy="315.2" r="2.4"/><circle cx="80.1" cy="323.5" r="2.4"/><circle cx="233.8" cy="263.5" r="2.4"/><circle cx="177.8" cy="393.1" r="2.4"/><circle cx="78.2" cy="280.8" r="2.4"/><circle cx="176.9" cy="169.7" r="2.4"/><circle cx="80.2" cy="311.4" r="2.4"/><circle cx="197.7" cy="262.5" r="2.4"/><circle cx="239.1" cy="244.8" r="2.4"/><circle cx="120.3" cy="180.4" r="2.4"/><circle cx="252.5" cy="329.2" r="2.4"/><circle cx="269.4" cy="261.4" r="2.4"/><circle cx="95.4" cy="201.7" r="2.4"/><circle cx="118.2" cy="287.8" r="2.4"/><circle cx="249.3" cy="217.6" r="2.4"/><circle cx="75.6" cy="261.9" r="2.4"/><circle cx="177.2" cy="248.6" r="2.4"/><circle cx="302.7" cy="392.6" r="2.4"/><circle cx="182.5" cy="203.9" r="2.4"/><circle cx="289.5" cy="307.9" r="2.4"/><circle cx="152.2" cy="356.8" r="2.4"/><circle cx="183.9" cy="217.6" r="2.4"/><circle cx="127.4" cy="272.0" r="2.4"/><circle cx="234.5" cy="342.3" r="2.4"/><circle cx="186.5" cy="231.4" r="2.4"/><circle cx="141.0" cy="381.3" r="2.4"/><circle cx="260.9" cy="392.9" r="2.4"/><circle cx="174.5" cy="129.3" r="2.4"/><circle cx="312.0" cy="253.1" r="2.4"/><circle cx="143.1" cy="322.4" r="2.4"/><circle cx="289.8" cy="206.4" r="2.4"/><circle cx="188.6" cy="316.6" r="2.4"/><circle cx="238.5" cy="291.2" r="2.4"/><circle cx="140.5" cy="122.4" r="2.4"/><circle cx="75.2" cy="334.4" r="2.4"/><circle cx="213.6" cy="253.2" r="2.4"/><circle cx="188.7" cy="361.1" r="2.4"/><circle cx="288.8" cy="387.9" r="2.4"/><circle cx="177.8" cy="286.1" r="2.4"/><circle cx="154.2" cy="367.8" r="2.4"/><circle cx="215.1" cy="155.1" r="2.4"/><circle cx="256.5" cy="399.2" r="2.4"/><circle cx="101.8" cy="237.3" r="2.4"/><circle cx="220.8" cy="335.8" r="2.4"/><circle cx="167.9" cy="184.5" r="2.4"/><circle cx="282.9" cy="246.1" r="2.4"/><circle cx="284.9" cy="386.7" r="2.4"/><circle cx="132.5" cy="207.4" r="2.4"/><circle cx="246.9" cy="263.8" r="2.4"/><circle cx="134.6" cy="375.7" r="2.4"/><circle cx="81.8" cy="195.3" r="2.4"/><circle cx="80.5" cy="178.8" r="2.4"/><circle cx="224.6" cy="388.3" r="2.4"/><circle cx="280.7" cy="199.6" r="2.4"/><circle cx="194.1" cy="162.0" r="2.4"/><circle cx="246.1" cy="204.4" r="2.4"/><circle cx="227.8" cy="146.6" r="2.4"/><circle cx="235.1" cy="313.3" r="2.4"/><circle cx="299.5" cy="306.3" r="2.4"/><circle cx="165.9" cy="171.1" r="2.4"/><circle cx="116.2" cy="335.5" r="2.4"/><circle cx="324.4" cy="359.5" r="2.4"/><circle cx="84.5" cy="398.1" r="2.4"/><circle cx="163.9" cy="378.4" r="2.4"/><circle cx="137.0" cy="328.2" r="2.4"/><circle cx="270.0" cy="377.2" r="2.4"/><circle cx="122.4" cy="298.4" r="2.4"/><circle cx="267.7" cy="259.6" r="2.4"/><circle cx="284.7" cy="395.1" r="2.4"/><circle cx="358.3" cy="346.9" r="2.4"/><circle cx="238.9" cy="309.3" r="2.4"/><circle cx="81.6" cy="241.4" r="2.4"/><circle cx="343.8" cy="362.8" r="2.4"/><circle cx="202.6" cy="212.6" r="2.4"/><circle cx="155.3" cy="287.6" r="2.4"/><circle cx="166.3" cy="159.5" r="2.4"/><circle cx="105.9" cy="130.5" r="2.4"/><circle cx="324.2" cy="256.6" r="2.4"/><circle cx="353.1" cy="360.3" r="2.4"/><circle cx="170.1" cy="299.8" r="2.4"/><circle cx="86.9" cy="162.7" r="2.4"/><circle cx="83.4" cy="187.0" r="2.4"/><circle cx="77.7" cy="270.2" r="2.4"/><circle cx="304.2" cy="321.3" r="2.4"/><circle cx="245.5" cy="287.6" r="2.4"/><circle cx="197.8" cy="209.4" r="2.4"/><circle cx="304.5" cy="368.4" r="2.4"/><circle cx="170.9" cy="343.3" r="2.4"/><circle cx="256.5" cy="180.0" r="2.4"/><circle cx="70.8" cy="356.2" r="2.4"/><circle cx="360.7" cy="340.9" r="2.4"/><circle cx="247.9" cy="329.3" r="2.4"/><circle cx="336.5" cy="331.2" r="2.4"/><circle cx="171.5" cy="346.5" r="2.4"/><circle cx="131.4" cy="368.1" r="2.4"/><circle cx="322.3" cy="303.5" r="2.4"/><circle cx="162.4" cy="378.5" r="2.4"/><circle cx="112.0" cy="264.0" r="2.4"/><circle cx="284.0" cy="191.7" r="2.4"/><circle cx="134.2" cy="203.5" r="2.4"/><circle cx="97.4" cy="172.3" r="2.4"/><circle cx="150.8" cy="184.1" r="2.4"/><circle cx="74.8" cy="185.6" r="2.4"/><circle cx="74.7" cy="398.2" r="2.4"/><circle cx="204.0" cy="158.0" r="2.4"/><circle cx="200.4" cy="155.7" r="2.4"/><circle cx="273.7" cy="189.8" r="2.4"/><circle cx="183.3" cy="274.2" r="2.4"/><circle cx="178.4" cy="172.0" r="2.4"/><circle cx="162.4" cy="131.2" r="2.4"/><circle cx="308.4" cy="252.8" r="2.4"/><circle cx="198.6" cy="352.1" r="2.4"/><circle cx="194.5" cy="255.1" r="2.4"/><circle cx="136.0" cy="139.9" r="2.4"/><circle cx="190.4" cy="168.3" r="2.4"/><circle cx="326.7" cy="308.9" r="2.4"/><circle cx="336.6" cy="380.5" r="2.4"/><circle cx="140.7" cy="155.7" r="2.4"/><circle cx="303.1" cy="376.8" r="2.4"/><circle cx="317.4" cy="278.7" r="2.4"/><circle cx="130.6" cy="313.5" r="2.4"/><circle cx="114.3" cy="131.1" r="2.4"/><circle cx="109.1" cy="383.1" r="2.4"/><circle cx="182.5" cy="384.9" r="2.4"/><circle cx="286.2" cy="261.1" r="2.4"/><circle cx="359.2" cy="368.4" r="2.4"/><circle cx="131.7" cy="328.4" r="2.4"/><circle cx="276.9" cy="287.7" r="2.4"/><circle cx="289.7" cy="234.2" r="2.4"/><circle cx="250.6" cy="183.2" r="2.4"/><circle cx="177.8" cy="209.8" r="2.4"/><circle cx="281.4" cy="233.6" r="2.4"/><circle cx="176.3" cy="294.6" r="2.4"/><circle cx="193.6" cy="337.5" r="2.4"/><circle cx="111.8" cy="362.1" r="2.4"/><circle cx="150.4" cy="258.1" r="2.4"/><circle cx="265.8" cy="375.5" r="2.4"/><circle cx="188.9" cy="278.9" r="2.4"/><circle cx="336.6" cy="362.3" r="2.4"/><circle cx="95.6" cy="146.9" r="2.4"/><circle cx="73.4" cy="172.3" r="2.4"/><circle cx="226.0" cy="281.7" r="2.4"/><circle cx="268.9" cy="391.5" r="2.4"/><circle cx="258.5" cy="193.3" r="2.4"/><circle cx="166.4" cy="164.2" r="2.4"/><circle cx="203.4" cy="263.0" r="2.4"/><circle cx="252.1" cy="215.9" r="2.4"/><circle cx="97.7" cy="310.0" r="2.4"/><circle cx="343.0" cy="342.7" r="2.4"/><circle cx="216.9" cy="235.8" r="2.4"/><circle cx="260.6" cy="290.1" r="2.4"/><circle cx="119.8" cy="168.4" r="2.4"/><circle cx="225.2" cy="190.9" r="2.4"/><circle cx="173.2" cy="389.6" r="2.4"/><circle cx="144.2" cy="349.8" r="2.4"/><circle cx="126.2" cy="117.7" r="2.4"/><circle cx="276.9" cy="298.0" r="2.4"/><circle cx="173.0" cy="319.3" r="2.4"/><circle cx="243.6" cy="216.8" r="2.4"/><circle cx="235.1" cy="208.8" r="2.4"/><circle cx="161.1" cy="307.4" r="2.4"/><circle cx="97.2" cy="293.0" r="2.4"/><circle cx="103.4" cy="314.2" r="2.4"/><circle cx="111.2" cy="317.2" r="2.4"/><circle cx="291.6" cy="324.6" r="2.4"/><circle cx="101.8" cy="342.5" r="2.4"/><circle cx="197.0" cy="248.3" r="2.4"/><circle cx="94.2" cy="373.4" r="2.4"/><circle cx="344.1" cy="286.5" r="2.4"/><circle cx="104.1" cy="287.9" r="2.4"/><circle cx="98.7" cy="179.1" r="2.4"/><circle cx="147.4" cy="162.2" r="2.4"/><circle cx="84.6" cy="385.1" r="2.4"/><circle cx="285.4" cy="390.5" r="2.4"/><circle cx="221.8" cy="221.1" r="2.4"/><circle cx="310.9" cy="238.5" r="2.4"/><circle cx="117.7" cy="113.2" r="2.4"/><circle cx="175.3" cy="211.8" r="2.4"/><circle cx="203.8" cy="385.5" r="2.4"/><circle cx="82.4" cy="291.5" r="2.4"/><circle cx="250.3" cy="235.0" r="2.4"/><circle cx="127.8" cy="329.0" r="2.4"/><circle cx="107.7" cy="239.3" r="2.4"/><circle cx="206.2" cy="238.0" r="2.4"/><circle cx="284.1" cy="382.7" r="2.4"/><circle cx="131.0" cy="196.5" r="2.4"/><circle cx="255.4" cy="394.1" r="2.4"/><circle cx="197.2" cy="258.8" r="2.4"/><circle cx="237.6" cy="222.0" r="2.4"/><circle cx="219.4" cy="313.5" r="2.4"/><circle cx="275.3" cy="238.8" r="2.4"/><circle cx="353.0" cy="340.9" r="2.4"/><circle cx="328.4" cy="398.1" r="2.4"/><circle cx="214.6" cy="284.7" r="2.4"/><circle cx="130.9" cy="246.6" r="2.4"/><circle cx="272.1" cy="396.4" r="2.4"/><circle cx="98.2" cy="301.5" r="2.4"/><circle cx="135.5" cy="141.1" r="2.4"/><circle cx="270.7" cy="226.7" r="2.4"/><circle cx="244.0" cy="348.4" r="2.4"/><circle cx="243.3" cy="249.4" r="2.4"/><circle cx="130.2" cy="286.7" r="2.4"/><circle cx="278.4" cy="243.8" r="2.4"/><circle cx="85.7" cy="216.6" r="2.4"/><circle cx="158.7" cy="254.4" r="2.4"/><circle cx="80.4" cy="334.9" r="2.4"/><circle cx="292.3" cy="309.5" r="2.4"/><circle cx="257.1" cy="396.0" r="2.4"/><circle cx="176.9" cy="387.5" r="2.4"/><circle cx="242.7" cy="196.2" r="2.4"/><circle cx="90.6" cy="173.8" r="2.4"/><circle cx="228.6" cy="334.3" r="2.4"/><circle cx="347.3" cy="394.4" r="2.4"/><circle cx="263.8" cy="267.9" r="2.4"/><circle cx="199.7" cy="155.0" r="2.4"/><circle cx="241.6" cy="221.3" r="2.4"/><circle cx="325.3" cy="396.6" r="2.4"/><circle cx="311.9" cy="244.5" r="2.4"/><circle cx="294.6" cy="358.7" r="2.4"/><circle cx="155.8" cy="360.6" r="2.4"/><circle cx="81.4" cy="150.5" r="2.4"/><circle cx="84.3" cy="272.1" r="2.4"/><circle cx="111.8" cy="314.5" r="2.4"/><circle cx="350.6" cy="302.4" r="2.4"/><circle cx="162.8" cy="120.1" r="2.4"/><circle cx="326.5" cy="296.3" r="2.4"/><circle cx="92.9" cy="273.3" r="2.4"/><circle cx="270.3" cy="292.7" r="2.4"/><circle cx="140.6" cy="109.6" r="2.4"/><circle cx="339.0" cy="337.6" r="2.4"/><circle cx="277.4" cy="253.3" r="2.4"/><circle cx="128.1" cy="142.6" r="2.4"/><circle cx="213.7" cy="148.7" r="2.4"/><circle cx="122.4" cy="286.8" r="2.4"/><circle cx="161.2" cy="268.9" r="2.4"/><circle cx="131.0" cy="305.0" r="2.4"/><circle cx="82.1" cy="246.5" r="2.4"/><circle cx="162.5" cy="361.9" r="2.4"/><circle cx="109.4" cy="158.5" r="2.4"/><circle cx="256.4" cy="315.2" r="2.4"/><circle cx="254.1" cy="392.1" r="2.4"/><circle cx="291.0" cy="380.8" r="2.4"/><circle cx="192.0" cy="303.6" r="2.4"/><circle cx="314.1" cy="399.7" r="2.4"/><circle cx="111.2" cy="378.7" r="2.4"/><circle cx="334.8" cy="290.7" r="2.4"/><circle cx="222.6" cy="155.1" r="2.4"/><circle cx="151.5" cy="328.3" r="2.4"/><circle cx="201.5" cy="256.8" r="2.4"/><circle cx="294.1" cy="366.0" r="2.4"/><circle cx="126.0" cy="255.9" r="2.4"/><circle cx="117.1" cy="324.5" r="2.4"/><circle cx="118.6" cy="356.4" r="2.4"/><circle cx="255.5" cy="349.1" r="2.4"/><circle cx="143.3" cy="250.9" r="2.4"/><circle cx="237.7" cy="162.1" r="2.4"/><circle cx="110.4" cy="107.1" r="2.4"/><circle cx="200.4" cy="327.3" r="2.4"/><circle cx="262.5" cy="398.3" r="2.4"/><circle cx="237.9" cy="186.5" r="2.4"/><circle cx="96.9" cy="350.1" r="2.4"/><circle cx="129.0" cy="157.4" r="2.4"/><circle cx="95.5" cy="106.9" r="2.4"/><circle cx="103.8" cy="388.4" r="2.4"/><circle cx="273.7" cy="346.7" r="2.4"/><circle cx="82.9" cy="254.5" r="2.4"/><circle cx="250.8" cy="275.1" r="2.4"/><circle cx="119.9" cy="392.6" r="2.4"/><circle cx="131.2" cy="279.3" r="2.4"/><circle cx="271.2" cy="394.3" r="2.4"/><circle cx="223.1" cy="227.8" r="2.4"/><circle cx="211.9" cy="223.1" r="2.4"/><circle cx="226.6" cy="386.2" r="2.4"/><circle cx="79.3" cy="332.9" r="2.4"/><circle cx="324.0" cy="320.9" r="2.4"/><circle cx="120.1" cy="188.7" r="2.4"/><circle cx="221.3" cy="281.4" r="2.4"/><circle cx="127.4" cy="327.3" r="2.4"/><circle cx="143.8" cy="186.7" r="2.4"/><circle cx="302.9" cy="211.1" r="2.4"/><circle cx="109.3" cy="181.2" r="2.4"/><circle cx="176.4" cy="139.2" r="2.4"/><circle cx="324.7" cy="258.7" r="2.4"/><circle cx="246.8" cy="357.3" r="2.4"/><circle cx="354.0" cy="349.8" r="2.4"/><circle cx="114.8" cy="187.0" r="2.4"/><circle cx="288.5" cy="338.2" r="2.4"/><circle cx="99.3" cy="172.7" r="2.4"/><circle cx="320.7" cy="347.7" r="2.4"/><circle cx="124.6" cy="123.5" r="2.4"/><circle cx="227.4" cy="364.8" r="2.4"/><circle cx="139.9" cy="111.6" r="2.4"/><circle cx="340.4" cy="296.2" r="2.4"/><circle cx="318.4" cy="301.8" r="2.4"/><circle cx="163.5" cy="257.7" r="2.4"/><circle cx="267.0" cy="271.9" r="2.4"/><circle cx="123.2" cy="397.2" r="2.4"/><circle cx="254.6" cy="353.8" r="2.4"/><circle cx="141.5" cy="298.4" r="2.4"/><circle cx="342.6" cy="373.3" r="2.4"/><circle cx="121.0" cy="378.1" r="2.4"/><circle cx="355.3" cy="385.6" r="2.4"/><circle cx="264.5" cy="370.7" r="2.4"/><circle cx="291.1" cy="222.9" r="2.4"/><circle cx="193.0" cy="204.3" r="2.4"/><circle cx="173.6" cy="316.8" r="2.4"/><circle cx="247.5" cy="158.3" r="2.4"/><circle cx="301.9" cy="311.6" r="2.4"/><circle cx="343.3" cy="315.5" r="2.4"/><circle cx="115.4" cy="113.9" r="2.4"/><circle cx="294.4" cy="312.9" r="2.4"/><circle cx="261.0" cy="321.8" r="2.4"/><circle cx="80.6" cy="231.2" r="2.4"/><circle cx="280.0" cy="305.3" r="2.4"/><circle cx="239.7" cy="154.7" r="2.4"/><circle cx="229.1" cy="240.5" r="2.4"/><circle cx="232.6" cy="347.7" r="2.4"/><circle cx="170.1" cy="277.8" r="2.4"/><circle cx="289.4" cy="195.4" r="2.4"/><circle cx="239.8" cy="229.7" r="2.4"/><circle cx="153.6" cy="130.0" r="2.4"/><circle cx="147.4" cy="247.5" r="2.4"/><circle cx="162.9" cy="323.4" r="2.4"/><circle cx="329.5" cy="354.0" r="2.4"/><circle cx="295.0" cy="397.7" r="2.4"/><circle cx="94.6" cy="386.8" r="2.4"/><circle cx="302.0" cy="249.5" r="2.4"/><circle cx="169.9" cy="202.1" r="2.4"/><circle cx="237.9" cy="221.3" r="2.4"/><circle cx="86.7" cy="262.9" r="2.4"/><circle cx="83.7" cy="142.2" r="2.4"/><circle cx="128.4" cy="371.3" r="2.4"/><circle cx="180.0" cy="126.0" r="2.4"/><circle cx="128.6" cy="372.3" r="2.4"/><circle cx="311.3" cy="326.7" r="2.4"/><circle cx="224.2" cy="213.1" r="2.4"/><circle cx="112.0" cy="298.9" r="2.4"/><circle cx="99.5" cy="301.3" r="2.4"/><circle cx="195.9" cy="289.5" r="2.4"/><circle cx="71.2" cy="180.0" r="2.4"/><circle cx="212.3" cy="183.1" r="2.4"/><circle cx="99.1" cy="147.4" r="2.4"/><circle cx="296.4" cy="262.5" r="2.4"/><circle cx="78.1" cy="337.6" r="2.4"/><circle cx="187.5" cy="391.5" r="2.4"/><circle cx="305.5" cy="245.7" r="2.4"/><circle cx="152.9" cy="301.6" r="2.4"/><circle cx="171.8" cy="222.5" r="2.4"/><circle cx="340.8" cy="333.9" r="2.4"/><circle cx="280.5" cy="226.9" r="2.4"/><circle cx="171.1" cy="166.2" r="2.4"/><circle cx="312.3" cy="317.8" r="2.4"/><circle cx="131.0" cy="148.4" r="2.4"/><circle cx="130.1" cy="305.9" r="2.4"/><circle cx="134.6" cy="296.5" r="2.4"/><circle cx="198.5" cy="318.7" r="2.4"/><circle cx="149.9" cy="145.2" r="2.4"/><circle cx="176.7" cy="142.4" r="2.4"/><circle cx="75.6" cy="270.6" r="2.4"/><circle cx="198.9" cy="326.1" r="2.4"/><circle cx="244.7" cy="244.2" r="2.4"/><circle cx="87.0" cy="212.5" r="2.4"/><circle cx="93.3" cy="143.8" r="2.4"/><circle cx="205.8" cy="224.7" r="2.4"/><circle cx="132.3" cy="313.0" r="2.4"/><circle cx="85.9" cy="344.7" r="2.4"/><circle cx="117.0" cy="253.3" r="2.4"/><circle cx="78.3" cy="318.0" r="2.4"/><circle cx="112.2" cy="243.5" r="2.4"/><circle cx="343.0" cy="321.8" r="2.4"/><circle cx="203.6" cy="252.3" r="2.4"/><circle cx="170.0" cy="293.5" r="2.4"/><circle cx="184.0" cy="178.7" r="2.4"/><circle cx="141.8" cy="398.0" r="2.4"/><circle cx="216.2" cy="226.8" r="2.4"/><circle cx="281.0" cy="355.9" r="2.4"/><circle cx="235.3" cy="235.9" r="2.4"/><circle cx="245.8" cy="208.8" r="2.4"/><circle cx="204.4" cy="143.3" r="2.4"/><circle cx="118.4" cy="143.3" r="2.4"/><circle cx="286.8" cy="349.2" r="2.4"/><circle cx="175.9" cy="250.7" r="2.4"/><circle cx="186.7" cy="149.1" r="2.4"/><circle cx="148.0" cy="243.3" r="2.4"/><circle cx="148.8" cy="143.0" r="2.4"/><circle cx="265.1" cy="300.9" r="2.4"/><circle cx="185.6" cy="313.3" r="2.4"/><circle cx="143.3" cy="257.1" r="2.4"/><circle cx="117.8" cy="229.5" r="2.4"/><circle cx="359.2" cy="387.1" r="2.4"/><circle cx="87.2" cy="110.8" r="2.4"/><circle cx="198.5" cy="172.6" r="2.4"/><circle cx="144.0" cy="275.3" r="2.4"/><circle cx="356.4" cy="334.0" r="2.4"/><circle cx="100.0" cy="314.5" r="2.4"/><circle cx="161.9" cy="320.8" r="2.4"/><circle cx="77.3" cy="104.8" r="2.4"/><circle cx="230.1" cy="312.4" r="2.4"/><circle cx="338.8" cy="314.5" r="2.4"/><circle cx="137.0" cy="328.0" r="2.4"/><circle cx="115.6" cy="328.3" r="2.4"/><circle cx="75.6" cy="158.1" r="2.4"/><circle cx="286.8" cy="312.1" r="2.4"/><circle cx="118.7" cy="182.4" r="2.4"/><circle cx="131.5" cy="377.6" r="2.4"/><circle cx="250.8" cy="172.7" r="2.4"/><circle cx="112.1" cy="126.3" r="2.4"/><circle cx="312.4" cy="355.2" r="2.4"/><circle cx="152.1" cy="184.1" r="2.4"/><circle cx="168.3" cy="237.5" r="2.4"/><circle cx="84.1" cy="246.0" r="2.4"/><circle cx="172.8" cy="236.6" r="2.4"/><circle cx="81.7" cy="155.4" r="2.4"/><circle cx="224.9" cy="203.8" r="2.4"/><circle cx="172.9" cy="132.9" r="2.4"/><circle cx="107.3" cy="312.9" r="2.4"/><circle cx="118.0" cy="271.3" r="2.4"/><circle cx="211.0" cy="273.2" r="2.4"/><circle cx="123.8" cy="269.9" r="2.4"/><circle cx="257.5" cy="364.5" r="2.4"/><circle cx="331.3" cy="295.8" r="2.4"/><circle cx="109.6" cy="217.3" r="2.4"/><circle cx="121.2" cy="143.8" r="2.4"/><circle cx="259.3" cy="224.0" r="2.4"/><circle cx="78.3" cy="250.7" r="2.4"/><circle cx="91.7" cy="233.6" r="2.4"/><circle cx="154.6" cy="322.4" r="2.4"/><circle cx="146.4" cy="324.5" r="2.4"/><circle cx="151.4" cy="156.9" r="2.4"/><circle cx="90.5" cy="299.3" r="2.4"/><circle cx="301.4" cy="317.5" r="2.4"/><circle cx="157.0" cy="114.0" r="2.4"/><circle cx="101.0" cy="360.4" r="2.4"/><circle cx="230.1" cy="252.1" r="2.4"/><circle cx="125.1" cy="118.7" r="2.4"/><circle cx="259.0" cy="268.8" r="2.4"/><circle cx="256.0" cy="327.8" r="2.4"/><circle cx="308.8" cy="385.3" r="2.4"/><circle cx="297.1" cy="225.3" r="2.4"/><circle cx="101.2" cy="157.6" r="2.4"/><circle cx="207.9" cy="353.1" r="2.4"/><circle cx="322.5" cy="274.8" r="2.4"/><circle cx="212.2" cy="237.6" r="2.4"/><circle cx="197.5" cy="128.6" r="2.4"/><circle cx="160.7" cy="299.4" r="2.4"/><circle cx="328.3" cy="344.9" r="2.4"/><circle cx="266.5" cy="279.6" r="2.4"/><circle cx="304.2" cy="399.9" r="2.4"/><circle cx="136.2" cy="396.3" r="2.4"/><circle cx="168.8" cy="274.4" r="2.4"/><circle cx="122.0" cy="160.7" r="2.4"/><circle cx="71.0" cy="366.2" r="2.4"/><circle cx="85.5" cy="239.7" r="2.4"/><circle cx="142.3" cy="138.5" r="2.4"/><circle cx="223.9" cy="384.8" r="2.4"/><circle cx="212.0" cy="359.4" r="2.4"/><circle cx="194.1" cy="285.1" r="2.4"/><circle cx="166.1" cy="266.2" r="2.4"/><circle cx="181.9" cy="397.1" r="2.4"/><circle cx="163.6" cy="301.9" r="2.4"/><circle cx="272.1" cy="297.6" r="2.4"/><circle cx="168.5" cy="372.5" r="2.4"/><circle cx="262.3" cy="250.7" r="2.4"/><circle cx="101.5" cy="340.0" r="2.4"/><circle cx="199.0" cy="338.8" r="2.4"/><circle cx="292.4" cy="367.0" r="2.4"/><circle cx="193.2" cy="222.3" r="2.4"/><circle cx="287.3" cy="267.3" r="2.4"/><circle cx="173.5" cy="277.6" r="2.4"/><circle cx="323.3" cy="311.6" r="2.4"/><circle cx="246.1" cy="175.3" r="2.4"/><circle cx="71.6" cy="227.8" r="2.4"/><circle cx="77.7" cy="196.1" r="2.4"/><circle cx="246.4" cy="194.6" r="2.4"/><circle cx="105.6" cy="399.1" r="2.4"/><circle cx="72.7" cy="141.0" r="2.4"/><circle cx="194.3" cy="233.8" r="2.4"/><circle cx="165.7" cy="130.2" r="2.4"/><circle cx="201.4" cy="284.9" r="2.4"/><circle cx="251.9" cy="210.7" r="2.4"/><circle cx="93.6" cy="231.5" r="2.4"/><circle cx="343.6" cy="325.2" r="2.4"/><circle cx="119.8" cy="358.5" r="2.4"/><circle cx="92.9" cy="207.8" r="2.4"/><circle cx="184.1" cy="138.7" r="2.4"/><circle cx="251.2" cy="359.2" r="2.4"/><circle cx="181.4" cy="192.1" r="2.4"/><circle cx="171.6" cy="179.6" r="2.4"/><circle cx="327.5" cy="385.0" r="2.4"/><circle cx="147.1" cy="377.5" r="2.4"/><circle cx="332.8" cy="293.6" r="2.4"/><circle cx="90.7" cy="146.3" r="2.4"/><circle cx="173.8" cy="153.8" r="2.4"/><circle cx="316.3" cy="298.6" r="2.4"/><circle cx="341.4" cy="292.9" r="2.4"/><circle cx="168.1" cy="177.0" r="2.4"/><circle cx="85.6" cy="289.5" r="2.4"/><circle cx="101.5" cy="101.9" r="2.4"/><circle cx="127.4" cy="234.9" r="2.4"/><circle cx="238.0" cy="359.4" r="2.4"/><circle cx="140.0" cy="190.1" r="2.4"/><circle cx="274.8" cy="224.8" r="2.4"/><circle cx="179.2" cy="349.8" r="2.4"/><circle cx="173.5" cy="269.5" r="2.4"/><circle cx="130.6" cy="335.7" r="2.4"/><circle cx="309.9" cy="380.8" r="2.4"/><circle cx="197.9" cy="350.6" r="2.4"/><circle cx="149.5" cy="351.0" r="2.4"/><circle cx="264.3" cy="180.7" r="2.4"/><circle cx="125.7" cy="352.8" r="2.4"/><circle cx="144.4" cy="139.8" r="2.4"/><circle cx="83.4" cy="124.3" r="2.4"/><circle cx="87.7" cy="372.1" r="2.4"/><circle cx="227.0" cy="211.2" r="2.4"/><circle cx="123.9" cy="154.6" r="2.4"/><circle cx="256.0" cy="282.2" r="2.4"/><circle cx="237.8" cy="239.7" r="2.4"/><circle cx="235.1" cy="314.8" r="2.4"/><circle cx="174.0" cy="144.2" r="2.4"/><circle cx="154.0" cy="378.9" r="2.4"/><circle cx="98.4" cy="327.0" r="2.4"/><circle cx="73.6" cy="354.5" r="2.4"/><circle cx="86.8" cy="159.4" r="2.4"/><circle cx="266.0" cy="358.0" r="2.4"/><circle cx="180.2" cy="242.5" r="2.4"/><circle cx="83.3" cy="235.7" r="2.4"/><circle cx="112.7" cy="104.9" r="2.4"/><circle cx="197.2" cy="210.1" r="2.4"/><circle cx="175.3" cy="272.1" r="2.4"/><circle cx="139.3" cy="320.1" r="2.4"/><circle cx="103.7" cy="266.7" r="2.4"/><circle cx="98.8" cy="320.0" r="2.4"/><circle cx="99.9" cy="215.3" r="2.4"/><circle cx="108.7" cy="252.3" r="2.4"/><circle cx="222.9" cy="346.2" r="2.4"/><circle cx="318.6" cy="290.9" r="2.4"/><circle cx="141.2" cy="384.6" r="2.4"/><circle cx="124.1" cy="134.6" r="2.4"/><circle cx="132.7" cy="238.4" r="2.4"/><circle cx="295.2" cy="267.8" r="2.4"/><circle cx="80.4" cy="219.0" r="2.4"/><circle cx="195.2" cy="211.0" r="2.4"/><circle cx="329.8" cy="266.4" r="2.4"/><circle cx="192.6" cy="362.0" r="2.4"/><circle cx="324.7" cy="293.9" r="2.4"/><circle cx="249.5" cy="351.7" r="2.4"/><circle cx="207.6" cy="293.7" r="2.4"/><circle cx="271.8" cy="181.3" r="2.4"/><circle cx="211.1" cy="314.6" r="2.4"/><circle cx="260.8" cy="280.9" r="2.4"/><circle cx="214.9" cy="273.0" r="2.4"/><circle cx="269.8" cy="207.3" r="2.4"/><circle cx="170.2" cy="142.8" r="2.4"/><circle cx="297.4" cy="253.3" r="2.4"/><circle cx="167.6" cy="181.4" r="2.4"/><circle cx="126.8" cy="260.7" r="2.4"/><circle cx="272.8" cy="265.1" r="2.4"/><circle cx="175.3" cy="138.0" r="2.4"/><circle cx="205.9" cy="270.8" r="2.4"/><circle cx="200.6" cy="310.9" r="2.4"/><circle cx="234.8" cy="163.4" r="2.4"/><circle cx="96.3" cy="284.9" r="2.4"/><circle cx="208.9" cy="227.4" r="2.4"/></g>
  <g fill="#ffffff" fill-opacity="0.30"><circle cx="348.5" cy="126.8" r="2.4"/><circle cx="311.0" cy="157.6" r="2.4"/><circle cx="357.5" cy="179.9" r="2.4"/><circle cx="171.0" cy="105.7" r="2.4"/><circle cx="360.3" cy="179.3" r="2.4"/><circle cx="369.1" cy="266.6" r="2.4"/><circle cx="368.1" cy="210.6" r="2.4"/><circle cx="317.7" cy="128.7" r="2.4"/><circle cx="233.5" cy="104.6" r="2.4"/><circle cx="329.6" cy="101.4" r="2.4"/><circle cx="254.6" cy="144.4" r="2.4"/><circle cx="317.2" cy="202.9" r="2.4"/><circle cx="310.2" cy="154.7" r="2.4"/><circle cx="347.1" cy="208.5" r="2.4"/><circle cx="254.7" cy="101.6" r="2.4"/><circle cx="289.2" cy="192.7" r="2.4"/><circle cx="345.6" cy="183.0" r="2.4"/><circle cx="270.7" cy="135.2" r="2.4"/><circle cx="197.5" cy="120.8" r="2.4"/><circle cx="271.1" cy="103.9" r="2.4"/><circle cx="342.6" cy="191.6" r="2.4"/><circle cx="296.3" cy="197.5" r="2.4"/><circle cx="337.1" cy="143.0" r="2.4"/><circle cx="352.1" cy="239.8" r="2.4"/><circle cx="176.3" cy="113.4" r="2.4"/><circle cx="271.4" cy="162.6" r="2.4"/><circle cx="361.5" cy="106.7" r="2.4"/><circle cx="369.5" cy="318.0" r="2.4"/><circle cx="358.0" cy="216.3" r="2.4"/><circle cx="335.9" cy="222.8" r="2.4"/><circle cx="287.6" cy="120.9" r="2.4"/><circle cx="219.3" cy="114.9" r="2.4"/><circle cx="274.0" cy="123.9" r="2.4"/><circle cx="198.0" cy="122.0" r="2.4"/><circle cx="366.7" cy="197.1" r="2.4"/><circle cx="326.4" cy="157.3" r="2.4"/><circle cx="300.1" cy="151.4" r="2.4"/><circle cx="344.1" cy="162.6" r="2.4"/><circle cx="342.6" cy="182.3" r="2.4"/><circle cx="259.5" cy="150.3" r="2.4"/><circle cx="331.0" cy="140.6" r="2.4"/><circle cx="325.4" cy="155.8" r="2.4"/><circle cx="137.2" cy="103.3" r="2.4"/><circle cx="361.6" cy="187.8" r="2.4"/><circle cx="296.7" cy="128.2" r="2.4"/><circle cx="337.1" cy="203.9" r="2.4"/><circle cx="366.0" cy="343.5" r="2.4"/><circle cx="173.8" cy="114.6" r="2.4"/><circle cx="360.6" cy="159.2" r="2.4"/><circle cx="317.2" cy="142.2" r="2.4"/><circle cx="322.0" cy="225.1" r="2.4"/><circle cx="339.9" cy="145.9" r="2.4"/><circle cx="368.0" cy="338.1" r="2.4"/><circle cx="183.1" cy="110.5" r="2.4"/><circle cx="220.3" cy="135.1" r="2.4"/><circle cx="355.9" cy="136.8" r="2.4"/><circle cx="358.4" cy="169.0" r="2.4"/><circle cx="210.7" cy="114.1" r="2.4"/><circle cx="368.6" cy="181.4" r="2.4"/><circle cx="359.5" cy="137.7" r="2.4"/><circle cx="224.0" cy="139.0" r="2.4"/><circle cx="329.6" cy="121.0" r="2.4"/><circle cx="367.7" cy="222.1" r="2.4"/><circle cx="318.9" cy="169.2" r="2.4"/><circle cx="369.1" cy="240.7" r="2.4"/><circle cx="206.3" cy="103.1" r="2.4"/><circle cx="369.2" cy="131.4" r="2.4"/><circle cx="352.2" cy="241.3" r="2.4"/><circle cx="214.9" cy="115.9" r="2.4"/><circle cx="256.2" cy="141.0" r="2.4"/><circle cx="289.4" cy="144.8" r="2.4"/><circle cx="366.2" cy="294.0" r="2.4"/><circle cx="337.7" cy="187.5" r="2.4"/><circle cx="327.8" cy="239.0" r="2.4"/><circle cx="310.4" cy="120.6" r="2.4"/><circle cx="335.8" cy="201.7" r="2.4"/><circle cx="368.3" cy="344.4" r="2.4"/><circle cx="321.8" cy="225.0" r="2.4"/><circle cx="336.6" cy="196.7" r="2.4"/><circle cx="308.8" cy="206.7" r="2.4"/><circle cx="296.8" cy="195.6" r="2.4"/><circle cx="237.4" cy="114.6" r="2.4"/><circle cx="357.7" cy="268.7" r="2.4"/><circle cx="344.2" cy="103.8" r="2.4"/><circle cx="144.3" cy="102.5" r="2.4"/><circle cx="334.4" cy="194.4" r="2.4"/><circle cx="325.9" cy="197.0" r="2.4"/><circle cx="302.6" cy="132.7" r="2.4"/><circle cx="272.2" cy="168.3" r="2.4"/><circle cx="346.3" cy="174.9" r="2.4"/><circle cx="353.3" cy="196.0" r="2.4"/><circle cx="338.8" cy="191.2" r="2.4"/><circle cx="313.5" cy="218.1" r="2.4"/><circle cx="355.6" cy="263.3" r="2.4"/><circle cx="331.2" cy="187.0" r="2.4"/><circle cx="357.3" cy="100.4" r="2.4"/><circle cx="353.1" cy="153.3" r="2.4"/><circle cx="233.0" cy="119.8" r="2.4"/><circle cx="357.7" cy="306.3" r="2.4"/><circle cx="299.5" cy="168.9" r="2.4"/><circle cx="355.6" cy="289.6" r="2.4"/><circle cx="366.4" cy="288.8" r="2.4"/><circle cx="300.6" cy="136.4" r="2.4"/><circle cx="266.1" cy="129.7" r="2.4"/><circle cx="188.2" cy="106.2" r="2.4"/><circle cx="257.8" cy="151.2" r="2.4"/><circle cx="350.2" cy="231.1" r="2.4"/><circle cx="365.4" cy="180.1" r="2.4"/><circle cx="280.9" cy="115.9" r="2.4"/><circle cx="268.9" cy="145.1" r="2.4"/><circle cx="334.8" cy="136.2" r="2.4"/><circle cx="357.8" cy="116.0" r="2.4"/><circle cx="341.5" cy="233.7" r="2.4"/><circle cx="364.7" cy="252.0" r="2.4"/><circle cx="335.6" cy="193.6" r="2.4"/><circle cx="302.8" cy="140.8" r="2.4"/><circle cx="301.0" cy="195.1" r="2.4"/><circle cx="369.9" cy="309.9" r="2.4"/><circle cx="262.4" cy="149.1" r="2.4"/><circle cx="366.9" cy="275.9" r="2.4"/><circle cx="315.2" cy="199.8" r="2.4"/><circle cx="320.1" cy="208.4" r="2.4"/><circle cx="357.5" cy="144.8" r="2.4"/><circle cx="307.0" cy="131.8" r="2.4"/><circle cx="223.9" cy="112.3" r="2.4"/><circle cx="282.9" cy="165.9" r="2.4"/><circle cx="203.9" cy="117.5" r="2.4"/><circle cx="275.6" cy="175.3" r="2.4"/><circle cx="362.1" cy="181.5" r="2.4"/><circle cx="314.0" cy="132.3" r="2.4"/><circle cx="282.7" cy="127.8" r="2.4"/><circle cx="369.1" cy="128.7" r="2.4"/><circle cx="347.7" cy="203.6" r="2.4"/><circle cx="332.1" cy="192.8" r="2.4"/><circle cx="309.9" cy="174.0" r="2.4"/><circle cx="352.5" cy="248.1" r="2.4"/><circle cx="365.9" cy="275.5" r="2.4"/><circle cx="172.2" cy="101.8" r="2.4"/><circle cx="326.4" cy="221.7" r="2.4"/><circle cx="344.1" cy="170.6" r="2.4"/><circle cx="311.2" cy="194.7" r="2.4"/><circle cx="173.9" cy="102.7" r="2.4"/><circle cx="313.1" cy="221.4" r="2.4"/><circle cx="159.2" cy="113.4" r="2.4"/><circle cx="370.0" cy="217.5" r="2.4"/><circle cx="331.6" cy="124.3" r="2.4"/><circle cx="328.5" cy="134.2" r="2.4"/><circle cx="201.5" cy="119.6" r="2.4"/><circle cx="176.7" cy="118.3" r="2.4"/><circle cx="336.1" cy="149.9" r="2.4"/><circle cx="306.4" cy="184.0" r="2.4"/><circle cx="299.1" cy="152.8" r="2.4"/><circle cx="357.3" cy="301.7" r="2.4"/><circle cx="223.1" cy="141.8" r="2.4"/><circle cx="340.2" cy="145.9" r="2.4"/><circle cx="287.5" cy="158.2" r="2.4"/><circle cx="300.3" cy="145.6" r="2.4"/><circle cx="278.5" cy="168.0" r="2.4"/><circle cx="350.7" cy="190.0" r="2.4"/><circle cx="368.4" cy="282.9" r="2.4"/><circle cx="364.5" cy="148.6" r="2.4"/><circle cx="181.9" cy="108.0" r="2.4"/><circle cx="358.2" cy="193.2" r="2.4"/><circle cx="338.6" cy="254.0" r="2.4"/><circle cx="333.5" cy="148.5" r="2.4"/><circle cx="366.0" cy="188.3" r="2.4"/><circle cx="354.6" cy="183.4" r="2.4"/><circle cx="364.8" cy="181.0" r="2.4"/><circle cx="336.6" cy="115.2" r="2.4"/><circle cx="207.1" cy="132.9" r="2.4"/><circle cx="367.2" cy="299.2" r="2.4"/><circle cx="351.1" cy="263.6" r="2.4"/><circle cx="212.6" cy="123.7" r="2.4"/><circle cx="299.2" cy="171.8" r="2.4"/><circle cx="338.9" cy="239.9" r="2.4"/><circle cx="322.2" cy="116.7" r="2.4"/><circle cx="366.1" cy="318.1" r="2.4"/><circle cx="329.0" cy="172.0" r="2.4"/><circle cx="208.1" cy="108.5" r="2.4"/><circle cx="325.6" cy="110.3" r="2.4"/><circle cx="333.7" cy="213.2" r="2.4"/><circle cx="318.0" cy="144.1" r="2.4"/><circle cx="164.6" cy="100.3" r="2.4"/><circle cx="337.8" cy="200.2" r="2.4"/><circle cx="357.1" cy="310.8" r="2.4"/><circle cx="342.6" cy="147.1" r="2.4"/><circle cx="325.5" cy="124.8" r="2.4"/><circle cx="359.8" cy="211.8" r="2.4"/><circle cx="313.1" cy="139.6" r="2.4"/><circle cx="367.3" cy="227.8" r="2.4"/><circle cx="265.3" cy="135.8" r="2.4"/><circle cx="357.5" cy="102.3" r="2.4"/><circle cx="264.8" cy="150.7" r="2.4"/><circle cx="298.7" cy="118.9" r="2.4"/><circle cx="296.2" cy="186.3" r="2.4"/><circle cx="313.3" cy="180.1" r="2.4"/><circle cx="227.2" cy="109.3" r="2.4"/><circle cx="344.1" cy="199.3" r="2.4"/><circle cx="247.4" cy="117.4" r="2.4"/><circle cx="351.6" cy="162.4" r="2.4"/><circle cx="308.4" cy="129.8" r="2.4"/><circle cx="166.2" cy="106.0" r="2.4"/><circle cx="264.3" cy="152.2" r="2.4"/><circle cx="329.1" cy="138.9" r="2.4"/><circle cx="367.4" cy="204.2" r="2.4"/><circle cx="318.2" cy="173.5" r="2.4"/><circle cx="253.9" cy="134.6" r="2.4"/><circle cx="157.9" cy="111.5" r="2.4"/><circle cx="344.4" cy="275.9" r="2.4"/><circle cx="333.5" cy="122.0" r="2.4"/><circle cx="312.4" cy="144.3" r="2.4"/><circle cx="331.8" cy="161.8" r="2.4"/><circle cx="336.9" cy="157.9" r="2.4"/><circle cx="259.1" cy="150.0" r="2.4"/><circle cx="358.8" cy="318.1" r="2.4"/><circle cx="360.2" cy="101.3" r="2.4"/><circle cx="337.4" cy="245.7" r="2.4"/><circle cx="141.3" cy="106.5" r="2.4"/><circle cx="313.2" cy="141.8" r="2.4"/><circle cx="361.9" cy="242.2" r="2.4"/><circle cx="297.9" cy="102.3" r="2.4"/><circle cx="329.8" cy="181.5" r="2.4"/><circle cx="123.5" cy="102.1" r="2.4"/><circle cx="217.2" cy="130.1" r="2.4"/><circle cx="300.5" cy="148.3" r="2.4"/><circle cx="295.4" cy="124.0" r="2.4"/><circle cx="354.8" cy="135.5" r="2.4"/><circle cx="261.1" cy="121.4" r="2.4"/><circle cx="362.3" cy="326.9" r="2.4"/><circle cx="267.9" cy="103.2" r="2.4"/><circle cx="306.8" cy="153.9" r="2.4"/><circle cx="359.1" cy="221.7" r="2.4"/><circle cx="221.1" cy="122.2" r="2.4"/><circle cx="278.9" cy="114.9" r="2.4"/><circle cx="365.8" cy="153.2" r="2.4"/><circle cx="265.2" cy="113.0" r="2.4"/><circle cx="325.2" cy="133.0" r="2.4"/><circle cx="366.2" cy="241.3" r="2.4"/><circle cx="289.8" cy="116.7" r="2.4"/><circle cx="322.2" cy="177.0" r="2.4"/><circle cx="212.5" cy="124.3" r="2.4"/><circle cx="360.6" cy="321.1" r="2.4"/><circle cx="353.3" cy="177.5" r="2.4"/></g>
  <text x="425" y="208.0" font-family="Inter, Helvetica, Arial, sans-serif"
        font-size="20" font-weight="500" fill="#ffffff" fill-opacity="0.62"
        letter-spacing="2.5">MONTE CARLO</text>
  <text x="425" y="264.0" font-family="Inter, Helvetica, Arial, sans-serif"
        font-size="46" font-weight="600" fill="#ffffff" letter-spacing="-1">&#960; &#8776; 3.116</text>
  <text x="425" y="302.0" font-family="Inter, Helvetica, Arial, sans-serif"
        font-size="21" fill="#ffffff" fill-opacity="0.62">4 &#215; 857/1100</text>
</svg>
